Coordinates
version=1
nRows=13
nColumns=38
inDegrees=no

Units are S.I. units (second, meters, Newtons, ...)
If the header above contains a line with 'inDegrees', this indicates whether rotational values are in degrees (yes) or radians (no).

endheader
time	pelvis_tilt	pelvis_list	pelvis_rotation	pelvis_tx	pelvis_ty	pelvis_tz	hip_flexion_r	hip_adduction_r	hip_rotation_r	knee_angle_r	ankle_angle_r	subtalar_angle_r	mtp_angle_r	hip_flexion_l	hip_adduction_l	hip_rotation_l	knee_angle_l	ankle_angle_l	subtalar_angle_l	mtp_angle_l	lumbar_extension	lumbar_bending	lumbar_rotation	arm_flex_r	arm_add_r	arm_rot_r	elbow_flex_r	pro_sup_r	wrist_flex_r	wrist_dev_r	arm_flex_l	arm_add_l	arm_rot_l	elbow_flex_l	pro_sup_l	wrist_flex_l	wrist_dev_l
1.12	-1.6368	1.53738	0.0483821	0.722594	0.0204218	0.959812	-0.0771064	0.0829675	-0.0659922	0.144235	0.149485	0	0	0.545485	-0.0865242	-0.0934102	0.810114	0.109089	0	0	-0.0742763	0.0455478	-0.112802	-0.0455829	-0.138321	-0.0464163	0.252694	1.30643	0	0	0.0111062	-0.334923	-0.385668	0	1.5708	0	0
1.13	-1.54767	1.5407	-0.0475983	0.721902	0.00939084	0.959062	-0.0958178	0.0787101	-0.0597609	0.139313	0.156454	0	0	0.532154	-0.0847543	-0.119506	0.736713	0.115551	0	0	-0.0798241	0.0404298	-0.108799	-0.0436362	-0.135428	-0.0589391	0.251713	1.31673	0	0	0.0112709	-0.337059	-0.387116	0	1.5708	0	0
1.14	-1.51073	1.54357	-0.0907897	0.721372	-0.00179977	0.958011	-0.11087	0.0744441	-0.0557028	0.137647	0.164556	0	0	0.51949	-0.0823222	-0.148143	0.661202	0.120203	0	0	-0.0826736	0.0357887	-0.105736	-0.0420572	-0.132857	-0.0706319	0.250058	1.3288	0	0	0.0101189	-0.338645	-0.388154	0	1.5708	0	0
1.15	-1.46917	1.54683	-0.138147	0.72102	-0.0131765	0.956835	-0.125495	0.0692358	-0.0539751	0.136888	0.173252	0	0	0.505058	-0.0780106	-0.179346	0.583124	0.122479	0	0	-0.0850028	0.0308557	-0.103584	-0.0414106	-0.130895	-0.0799458	0.249861	1.33904	0	0	0.00822379	-0.339947	-0.389346	0	1.5708	0	0
1.16	-1.49142	1.54983	-0.120145	0.72095	-0.0247448	0.955397	-0.13802	0.0642507	-0.0544804	0.137559	0.182613	0	0	0.491652	-0.0718304	-0.210655	0.504559	0.123457	0	0	-0.0850687	0.0267145	-0.103527	-0.0418937	-0.129939	-0.0844171	0.250976	1.3454	0	0	0.00535148	-0.340663	-0.39084	0	1.5708	0	0
1.17	-1.54781	1.55356	-0.0670066	0.721131	-0.0364697	0.95383	-0.14939	0.0581769	-0.0569487	0.13987	0.192948	0	0	0.477673	-0.0622928	-0.239762	0.425314	0.122722	0	0	-0.0842609	0.0218925	-0.104975	-0.0424595	-0.129174	-0.0880373	0.251534	1.34975	0	0	0.00188548	-0.341207	-0.392485	0	1.5708	0	0
1.18	-1.708	1.55744	0.0912789	0.7216	-0.0483786	0.952062	-0.159761	0.0514487	-0.0613398	0.142853	0.203973	0	0	0.463923	-0.0492204	-0.262668	0.34595	0.120893	0	0	-0.0819388	0.0169912	-0.108381	-0.0432567	-0.128892	-0.0922161	0.252115	1.35452	0	0	-0.00267003	-0.341373	-0.39424	0	1.5708	0	0
1.19	-2.1029	1.55999	0.485707	0.72235	-0.0604486	0.950059	-0.168391	0.0445583	-0.0679276	0.147064	0.215745	0	0	0.451104	-0.0331084	-0.274437	0.267107	0.118625	0	0	-0.0777172	0.0125289	-0.11345	-0.0444764	-0.129454	-0.0957631	0.252904	1.36008	0	0	-0.00793278	-0.341014	-0.396012	0	1.5708	0	0
1.2	-2.64791	1.5604	1.03112	0.723291	-0.0727291	0.947991	-0.175994	0.036864	-0.0772452	0.153793	0.228405	0	0	0.435772	-0.0137381	-0.269588	0.185909	0.1135	0	0	-0.0729811	0.00751484	-0.120149	-0.0445933	-0.130427	-0.0981459	0.251393	1.36789	0	0	-0.0138302	-0.34029	-0.399192	0	1.5708	0	0
1.21	-3.06436	1.55706	1.44772	0.724196	-0.0851822	0.945776	-0.180761	0.0295959	-0.0848516	0.164149	0.240701	0	0	0.419563	0.00530167	-0.248574	0.105258	0.105437	0	0	-0.066882	0.00284456	-0.126979	-0.0438513	-0.131745	-0.0996176	0.247653	1.37752	0	0	-0.020278	-0.339531	-0.402505	0	1.5708	0	0
1.22	3.04918	1.55258	1.61664	0.724928	-0.0978533	0.943524	-0.185189	0.0236457	-0.0902603	0.175943	0.251936	0	0	0.402819	0.0210068	-0.2161	0.0299375	0.0947076	0	0	-0.0604755	-0.00103051	-0.132984	-0.0435127	-0.133464	-0.100339	0.244293	1.38575	0	0	-0.0271633	-0.338814	-0.403872	0	1.5708	0	0
1.23	3.05989	1.54661	1.60503	0.725407	-0.110551	0.941138	-0.187227	0.021155	-0.0927268	0.188952	0.260589	0	0	0.396309	0.0295004	-0.191716	0	0.0955357	0	0	-0.0524916	-0.0026985	-0.137928	-0.0443935	-0.135555	-0.0989021	0.242707	1.38709	0	0	-0.0330758	-0.338364	-0.404174	0	1.5708	0	0
1.24	2.98608	1.54598	1.68091	0.725835	-0.122315	0.939002	-0.190681	0.0222269	-0.0889555	0.208749	0.264575	0	0	0.411519	0.0372165	-0.171802	0	0.103846	0	0	-0.0540636	-0.00709065	-0.141949	-0.0446798	-0.1368	-0.0962026	0.241749	1.38825	0	0	-0.0415233	-0.337459	-0.402723	0	1.5708	0	0
